# Blender v2.92.0 OBJ File: ''
# www.blender.org
mtllib Chest_Top.mtl
o chest.001_Cube.014
v -0.490661 0.498631 0.277925
v -0.540000 0.498631 0.300000
v -0.540000 0.498631 -0.300000
v 0.540000 0.498631 -0.300000
v 0.540000 0.564327 -0.274174
v 0.540000 0.564327 0.273944
v -0.540000 0.798876 -0.036475
v -0.490661 0.798876 0.041338
v -0.490661 0.798876 -0.036475
v 0.540000 0.798876 -0.036475
v 0.496800 0.766828 -0.180396
v 0.496800 0.798876 -0.036475
v 0.540000 0.766828 -0.180396
v 0.496800 0.688245 -0.254287
v 0.540000 0.688245 -0.254287
v 0.496800 0.564327 -0.300000
v -0.540000 0.798876 0.041338
v -0.490661 0.766828 0.180396
v -0.540000 0.766828 0.180396
v -0.490661 0.688245 0.253114
v -0.540000 0.688245 0.253114
v -0.490661 0.564327 0.300000
v -0.540000 0.564327 0.300000
v -0.540000 0.564327 0.273944
v 0.518400 0.678594 0.237520
v 0.540000 0.678594 0.237520
v 0.540000 0.678581 -0.238666
v -0.540000 0.678594 0.237520
v -0.518400 0.564327 0.273944
v 0.518400 0.750533 0.170950
v 0.540000 0.750533 0.170950
v -0.540000 0.750533 0.170950
v -0.518400 0.678594 0.237520
v 0.496800 0.688245 0.253114
v 0.540000 0.564327 0.300000
v 0.540000 0.688245 0.253114
v -0.490661 0.751186 -0.171489
v -0.490661 0.766828 -0.180396
v -0.031136 0.688245 0.253114
v 0.031136 0.564327 0.300000
v 0.031136 0.688245 0.253114
v -0.031136 0.751255 0.171369
v -0.031136 0.678772 0.237808
v 0.496800 0.766828 0.180396
v 0.540000 0.766828 0.180396
v 0.496800 0.751186 -0.171489
v -0.031136 0.766828 0.180396
v 0.031136 0.766828 0.180396
v 0.031136 0.751255 0.171369
v 0.496800 0.798876 0.041338
v 0.540000 0.798876 0.041338
v 0.031136 0.688245 -0.254287
v 0.031136 0.751186 -0.171489
v 0.031136 0.678775 -0.238979
v -0.031136 0.798876 0.041338
v 0.031136 0.798876 0.041338
v 0.496800 0.751255 0.171369
v 0.496800 0.678772 0.237808
v -0.490661 0.688245 -0.254287
v -0.540000 0.564327 -0.300000
v -0.540000 0.688245 -0.254287
v -0.031136 0.688245 -0.254287
v -0.031136 0.751186 -0.171489
v -0.031136 0.766828 -0.180396
v -0.031136 0.564327 -0.300000
v -0.490661 0.678772 0.237808
v -0.540000 0.766828 -0.180396
v -0.490661 0.678775 -0.238979
v 0.031136 0.766828 -0.180396
v -0.031136 0.564327 0.300000
v -0.031136 0.557957 0.283165
v 0.496800 0.678775 -0.238979
v 0.031136 0.798876 -0.036475
v -0.031136 0.798876 -0.036475
v 0.031136 0.678772 0.237808
v 0.000000 0.498631 0.300000
v 0.540000 0.498631 0.300000
v 0.496800 0.498631 0.277925
v 0.496800 0.498631 -0.277925
v 0.496800 0.556038 -0.277925
v 0.496800 0.557957 0.283165
v -0.490661 0.751255 0.171369
v 0.496800 0.781335 0.037296
v -0.490661 0.781335 0.037296
v -0.031136 0.781335 0.037296
v -0.031136 0.678775 -0.238979
v -0.490661 0.558097 -0.283112
v 0.031136 0.558097 -0.283112
v -0.031136 0.781306 -0.032563
v -0.490661 0.781306 -0.032563
v 0.496800 0.781306 -0.032563
v 0.031136 0.781306 -0.032563
v 0.031136 0.564327 -0.300000
v 0.496800 0.558097 -0.283112
v 0.031136 0.781335 0.037296
v -0.490661 0.564327 -0.300000
v -0.031136 0.558097 -0.283112
v -0.490661 0.557957 0.283165
v 0.496800 0.564327 0.300000
v 0.031136 0.557957 0.283165
v -0.540000 0.750462 -0.171077
v -0.540000 0.678581 -0.238666
v 0.518400 0.780876 0.039291
v 0.540000 0.780876 0.039291
v -0.540000 0.780876 0.039291
v -0.540000 0.780876 -0.034495
v -0.540000 0.564327 -0.274174
v 0.540000 0.750462 -0.171077
v 0.540000 0.780876 -0.034495
v -0.518400 0.750533 0.170950
v 0.518400 0.750462 -0.171077
v 0.518400 0.780876 -0.034495
v -0.518400 0.750462 -0.171077
v -0.518400 0.678581 -0.238666
v -0.518400 0.780876 -0.034495
v -0.518400 0.564327 -0.274174
v 0.518400 0.564327 -0.274174
v 0.518400 0.564327 0.273944
v -0.518400 0.780876 0.039291
v 0.518400 0.678581 -0.238666
v -0.490661 0.498631 -0.277925
v -0.490661 0.556038 0.277925
v 0.496800 0.556038 0.277925
v -0.490661 0.556038 -0.277925
v 0.039320 0.498631 0.300000
v 0.020437 0.498631 0.313080
v 0.020437 0.498631 0.300000
v -0.020437 0.498631 0.300000
v -0.039320 0.498631 0.313080
v -0.039320 0.498631 0.300000
v 0.020437 0.457915 0.300000
v -0.039320 0.564327 0.300000
v -0.039320 0.564327 0.313080
v 0.039320 0.564327 0.300000
v -0.020437 0.547903 0.313080
v 0.020437 0.547903 0.313080
v 0.006812 0.448562 0.313080
v 0.006812 0.448562 0.300000
v -0.006812 0.515055 0.313080
v -0.020437 0.457915 0.313080
v -0.006812 0.448562 0.313080
v -0.020437 0.498631 0.313080
v 0.020437 0.457915 0.313080
v -0.006812 0.448562 0.300000
v -0.020437 0.457915 0.300000
v -0.020437 0.531479 0.313080
v -0.020437 0.547903 0.300888
v 0.020437 0.531479 0.300888
v 0.020437 0.531479 0.313080
v 0.006812 0.515055 0.313080
v 0.006812 0.531479 0.313080
v 0.006812 0.515055 0.300888
v 0.039320 0.498631 0.313080
v -0.006812 0.531479 0.300888
v -0.006812 0.515055 0.300888
v 0.006812 0.531479 0.300888
v -0.020437 0.531479 0.300888
v -0.006812 0.531479 0.313080
v 0.020437 0.547903 0.300888
v 0.540000 0.564327 -0.300000
v 0.039320 0.564327 0.313080
vt 0.190778 0.015100
vt 0.184008 0.000000
vt 0.368016 0.000000
vt 0.717520 0.816372
vt 0.697372 0.808468
vt 0.697372 0.640717
vt 0.844410 0.330532
vt 0.868274 0.345632
vt 0.844410 0.345632
vt 0.844410 0.661064
vt 0.800277 0.647844
vt 0.844410 0.647842
vt 0.520786 0.632743
vt 0.545373 0.645964
vt 0.520786 0.645964
vt 0.545373 0.632742
vt 0.583672 0.645964
vt 0.868274 0.330532
vt 0.910925 0.345633
vt 0.717520 0.632743
vt 0.741930 0.647843
vt 0.717520 0.647843
vt 0.741930 0.632743
vt 0.780132 0.647843
vt 0.092079 1.000000
vt 0.071932 1.000000
vt 0.071932 0.992026
vt 0.691821 0.980631
vt 0.685197 0.945910
vt 0.691821 0.945910
vt 0.659369 0.802381
vt 0.662333 0.797600
vt 0.691821 0.945910
vt 0.698446 0.980631
vt 0.691821 0.980631
vt 0.033928 0.985651
vt 0.036888 0.980878
vt 0.685197 0.924341
vt 0.691821 0.924341
vt 0.691821 0.924341
vt 0.698446 0.945910
vt 0.741930 0.950053
vt 0.780132 0.963275
vt 0.741930 0.963275
vt 0.707219 0.816372
vt 0.690596 0.856933
vt 0.685197 0.855784
vt 0.741930 0.788479
vt 0.780132 0.807538
vt 0.741930 0.807538
vt 0.279431 0.915432
vt 0.281986 0.883947
vt 0.284737 0.913914
vt 0.717520 0.950053
vt 0.717520 0.963274
vt 0.493971 0.866854
vt 0.496449 0.898589
vt 0.491050 0.899738
vt 0.717520 0.788479
vt 0.717520 0.807538
vt 0.253213 0.880816
vt 0.255768 0.912300
vt 0.250372 0.913460
vt 0.868274 0.647842
vt 0.910925 0.661065
vt 0.868274 0.661064
vt 0.200232 0.916988
vt 0.202710 0.885254
vt 0.205523 0.915418
vt 0.868274 0.486268
vt 0.910925 0.505328
vt 0.868274 0.505327
vt 0.226995 0.915432
vt 0.229551 0.883947
vt 0.232302 0.913914
vt 0.545373 0.948174
vt 0.583672 0.963274
vt 0.545373 0.963274
vt 0.173389 0.880366
vt 0.175867 0.912100
vt 0.170468 0.913250
vt 0.545373 0.788479
vt 0.583672 0.807537
vt 0.545373 0.807538
vt 0.953849 0.661065
vt 0.940696 0.698706
vt 0.935390 0.697188
vt 0.520787 0.948174
vt 0.520787 0.963274
vt 0.688118 0.888668
vt 0.693409 0.887097
vt 0.520787 0.788479
vt 0.520787 0.807538
vt 0.297890 0.951555
vt 0.302808 0.949052
vt 0.800277 0.330533
vt 0.513022 0.831181
vt 0.499263 0.868424
vt 0.844410 0.505327
vt 0.800277 0.486270
vt 0.844410 0.486268
vt 0.271672 0.844693
vt 0.258520 0.882333
vt 0.603815 0.963274
vt 0.603815 0.632742
vt 0.800277 0.798009
vt 0.800277 0.632743
vt 0.800277 0.963275
vt 0.184008 0.330532
vt 0.190778 0.317311
vt 0.361247 0.317311
vt 0.517893 0.831181
vt 0.500288 0.661064
vt 0.517893 0.661064
vt 0.647954 0.816372
vt 0.685197 0.958887
vt 0.647954 0.958887
vt 0.941502 0.000000
vt 0.978745 0.140637
vt 0.941502 0.140637
vt 0.625441 0.816372
vt 0.625441 0.958887
vt 0.918989 0.000000
vt 0.918989 0.140637
vt 0.366537 0.613687
vt 0.325415 0.756202
vt 0.325415 0.613686
vt 0.325415 0.756203
vt 0.366537 0.896841
vt 0.325415 0.896839
vt 0.933577 0.498282
vt 0.970872 0.638919
vt 0.933577 0.638919
vt 0.114731 0.816371
vt 0.152026 0.958887
vt 0.114731 0.958887
vt 0.910925 0.498282
vt 0.910925 0.638919
vt 0.092079 0.816371
vt 0.092079 0.958887
vt 0.368016 0.613685
vt 0.325415 0.473050
vt 0.368016 0.473048
vt 0.325415 0.330533
vt 0.368016 0.473047
vt 0.325415 0.473048
vt 0.937945 0.728672
vt 0.932549 0.729832
vt 0.192490 0.952662
vt 0.197311 0.949979
vt 0.987433 0.638919
vt 0.992613 0.781435
vt 0.987433 0.781434
vt 0.245557 0.844693
vt 0.224154 0.882787
vt 0.219333 0.844693
vt 0.197311 0.884105
vt 0.271775 0.951555
vt 0.276590 0.948861
vt 0.987433 0.498282
vt 0.992794 0.638919
vt 0.987433 0.638919
vt 0.513072 0.939150
vt 0.517893 0.936467
vt 0.988682 0.000000
vt 0.993862 0.140637
vt 0.988682 0.140637
vt 0.297992 0.844693
vt 0.276590 0.882787
vt 0.994480 0.948561
vt 0.989318 0.807924
vt 0.994480 0.807924
vt 0.953951 0.767927
vt 0.958767 0.765233
vt 0.982857 0.196072
vt 0.988218 0.338587
vt 0.982857 0.338587
vt 0.712040 0.816372
vt 0.717401 0.958887
vt 0.712040 0.958887
vt 0.707168 0.924341
vt 0.712040 0.921750
vt 0.988218 0.196072
vt 0.993380 0.338587
vt 0.988218 0.338587
vt 0.192440 0.844693
vt 0.178681 0.881936
vt 0.245454 0.951555
vt 0.250372 0.949052
vt 0.982857 0.338587
vt 0.988218 0.479224
vt 0.982857 0.479224
vt 0.219283 0.952662
vt 0.224154 0.950071
vt 0.014847 0.855828
vt 0.000000 0.897023
vt 0.009828 0.852976
vt 0.033928 0.830362
vt 0.036892 0.835142
vt 0.988220 0.374547
vt 0.994842 0.414845
vt 0.988218 0.414845
vt 0.014826 0.960505
vt 0.000000 0.920837
vt 0.005520 0.920211
vt 0.009828 0.963395
vt 0.005520 0.897628
vt 0.071932 0.824275
vt 0.071932 0.816371
vt 0.640288 0.776915
vt 0.625441 0.735720
vt 0.630961 0.735114
vt 0.635269 0.779767
vt 0.659369 0.647092
vt 0.697372 0.632743
vt 0.640266 0.672238
vt 0.625441 0.711906
vt 0.635269 0.669347
vt 0.662329 0.651865
vt 0.630961 0.712532
vt 0.999237 0.679217
vt 0.992615 0.638919
vt 0.999239 0.638919
vt 0.942293 0.341679
vt 0.920252 0.466730
vt 0.920231 0.362053
vt 0.910925 0.424929
vt 0.910925 0.402347
vt 0.947650 0.964527
vt 0.925609 0.839477
vt 0.947654 0.818791
vt 0.925587 0.944153
vt 0.916282 0.881277
vt 0.982693 0.807924
vt 0.982693 0.975674
vt 0.977336 0.498282
vt 0.977336 0.330532
vt 0.999237 0.701799
vt 0.992613 0.679217
vt 0.994842 0.437427
vt 0.988218 0.437427
vt 0.982693 0.807924
vt 0.989318 0.975674
vt 0.982693 0.975674
vt 0.490645 0.975761
vt 0.484021 0.808011
vt 0.490645 0.808011
vt 0.999239 0.743596
vt 0.992613 0.701799
vt 0.994844 0.479224
vt 0.988220 0.479224
vt 0.349532 0.931652
vt 0.356156 0.953358
vt 0.349532 0.953358
vt 0.362781 0.953358
vt 0.356156 0.931652
vt 0.362781 0.931652
vt 0.349532 0.896841
vt 0.356156 0.931652
vt 0.356156 0.896841
vt 0.362781 0.896841
vt 0.361247 0.015100
vt 0.368016 0.330532
vt 0.184008 0.165266
vt 0.170468 0.632742
vt 0.000000 0.330532
vt 0.170468 0.330532
vt 0.936594 0.310754
vt 0.918989 0.140637
vt 0.936594 0.140637
vt 0.170410 0.934953
vt 0.152806 0.632742
vt 0.170410 0.632742
vt 0.621416 0.934953
vt 0.603815 0.632742
vt 0.621416 0.632742
vt 0.568571 0.322317
vt 0.572583 0.328096
vt 0.568571 0.328096
vt 0.576594 0.328096
vt 0.572583 0.322317
vt 0.576594 0.322317
vt 0.601447 0.323069
vt 0.605458 0.310608
vt 0.605458 0.323069
vt 0.564560 0.302211
vt 0.568571 0.302211
vt 0.564560 0.326278
vt 0.331206 0.927241
vt 0.325415 0.932267
vt 0.325415 0.912163
vt 0.343741 0.927241
vt 0.597435 0.323117
vt 0.593423 0.318947
vt 0.597434 0.318947
vt 0.335384 0.917189
vt 0.331206 0.899703
vt 0.335384 0.896841
vt 0.552025 0.302211
vt 0.564560 0.314669
vt 0.560382 0.317531
vt 0.601447 0.310608
vt 0.597435 0.323069
vt 0.597435 0.310608
vt 0.343741 0.899703
vt 0.343741 0.912163
vt 0.597434 0.314777
vt 0.593424 0.310608
vt 0.597435 0.310608
vt 0.593423 0.314777
vt 0.592486 0.327402
vt 0.588747 0.322375
vt 0.592486 0.322375
vt 0.585008 0.322375
vt 0.588747 0.327402
vt 0.585008 0.327402
vt 0.339563 0.917189
vt 0.588747 0.305581
vt 0.592486 0.310608
vt 0.588747 0.310608
vt 0.572583 0.322317
vt 0.568571 0.302211
vt 0.572583 0.302211
vt 0.576594 0.302211
vt 0.349532 0.912163
vt 0.343741 0.922215
vt 0.562097 0.325870
vt 0.557061 0.321701
vt 0.562097 0.321701
vt 0.557061 0.325870
vt 0.552025 0.317531
vt 0.557061 0.317531
vt 0.557061 0.330040
vt 0.588747 0.310608
vt 0.585008 0.305581
vt 0.588747 0.305581
vt 0.596225 0.327402
vt 0.592486 0.323232
vt 0.596225 0.323232
vt 0.605458 0.310608
vt 0.609197 0.323117
vt 0.605458 0.323117
vt 0.592486 0.305581
vt 0.596225 0.309751
vt 0.592486 0.309751
vt 0.568299 0.330448
vt 0.564560 0.326278
vt 0.568299 0.326278
vt 0.780132 0.950053
vt 0.583672 0.948174
vt 0.717520 0.632743
vt 0.697372 0.816372
vt 0.800277 0.661065
vt 0.583672 0.632742
vt 0.910925 0.330533
vt 0.780132 0.632743
vt 0.092079 0.816371
vt 0.685197 0.980631
vt 0.698446 0.924341
vt 0.712040 0.819054
vt 0.780132 0.788479
vt 0.910925 0.647844
vt 0.910925 0.486270
vt 0.583672 0.788479
vt 0.958767 0.663567
vt 0.800277 0.345633
vt 0.517893 0.833771
vt 0.800277 0.505328
vt 0.276590 0.847195
vt 0.500288 0.831181
vt 0.685197 0.816372
vt 0.978745 0.000000
vt 0.366537 0.756203
vt 0.366537 0.756204
vt 0.970872 0.498282
vt 0.152026 0.816371
vt 0.325415 0.613686
vt 0.368016 0.330532
vt 0.992613 0.638919
vt 0.250372 0.847387
vt 0.224154 0.847375
vt 0.992794 0.498282
vt 0.993862 0.000000
vt 0.302808 0.847387
vt 0.989318 0.948561
vt 0.988218 0.196072
vt 0.717401 0.816372
vt 0.993380 0.196072
vt 0.197311 0.847283
vt 0.988218 0.338587
vt 0.994844 0.374547
vt 0.942297 0.487415
vt 0.916282 0.903859
vt 0.989318 0.807924
vt 0.484021 0.975761
vt 0.992615 0.743596
vt 0.356156 0.953358
vt 0.356156 0.896841
vt -0.000000 0.632742
vt 0.918989 0.310754
vt 0.152806 0.934953
vt 0.603815 0.934953
vt 0.572583 0.322317
vt 0.572583 0.328096
vt 0.601447 0.310608
vt 0.349532 0.932267
vt 0.593424 0.323117
vt 0.331206 0.912163
vt 0.564560 0.302211
vt 0.601447 0.323069
vt 0.556203 0.317531
vt 0.552025 0.314669
vt 0.339563 0.896841
vt 0.568571 0.326278
vt 0.588747 0.327402
vt 0.335384 0.922215
vt 0.331206 0.922215
vt 0.588747 0.322375
vt 0.339563 0.922215
vt 0.592486 0.305581
vt 0.568571 0.322317
vt 0.572583 0.302211
vt 0.552025 0.330040
vt 0.585008 0.310608
vt 0.592486 0.327402
vt 0.609197 0.310608
vt 0.596225 0.305581
vt 0.564560 0.330448
vn -0.0000 -1.0000 -0.0000
vn 1.0000 -0.0000 0.0000
vn 0.0000 1.0000 0.0000
vn 0.0000 0.9761 -0.2174
vn 0.0000 0.6850 -0.7285
vn 0.0000 0.3461 -0.9382
vn 0.0000 0.9745 0.2246
vn 0.0000 0.6792 0.7340
vn 0.0000 0.3539 0.9353
vn -1.0000 0.0000 0.0000
vn 0.0000 -0.3037 -0.9528
vn 0.0000 -0.6792 -0.7340
vn 0.0000 0.0000 -1.0000
vn 0.0000 0.0000 1.0000
vn 0.0000 0.3515 0.9362
vn 0.0000 0.6757 0.7372
vn 0.0000 0.9757 0.2189
vn 0.0000 0.3435 -0.9392
vn 0.0000 0.6818 -0.7315
vn 0.0000 0.9773 -0.2119
vn 0.0000 0.9382 0.3461
vn 0.0000 -0.2173 -0.9761
vn 0.0000 0.9353 -0.3539
vn 0.0000 -0.2245 0.9745
vn 0.0000 -0.9745 -0.2246
vn 0.0000 -0.9761 0.2174
vn 0.0000 -0.6850 0.7285
vn 0.0000 -0.2968 0.9549
vn 0.5659 -0.8244 0.0000
vn -0.5659 -0.8244 0.0000
usemtl chest_MAT
s 1
f 1/1/1 2/2/1 3/3/1
f 4/4/2 5/5/2 6/6/2
f 7/7/3 8/8/3 9/9/3
f 10/10/4 11/11/4 12/12/4
f 13/13/5 14/14/5 11/15/5
f 15/16/6 16/17/6 14/14/6
f 17/18/7 18/19/7 8/8/7
f 19/20/8 20/21/8 18/22/8
f 21/23/9 22/24/9 20/21/9
f 2/25/10 23/26/10 24/27/10
f 6/28/11 25/29/11 26/30/11
f 5/5/2 15/31/2 27/32/2
f 28/33/11 29/34/11 24/35/11
f 24/27/10 21/36/10 28/37/10
f 26/30/12 30/38/12 31/39/12
f 32/40/12 33/41/12 28/33/12
f 34/42/9 35/43/9 36/44/9
f 9/45/2 37/46/2 38/47/2
f 39/48/9 40/49/9 41/50/9
f 39/51/10 42/52/10 43/53/10
f 44/54/8 36/44/8 45/55/8
f 14/56/10 46/57/10 11/58/10
f 47/59/8 41/50/8 48/60/8
f 41/61/2 49/62/2 48/63/2
f 50/64/7 45/65/7 51/66/7
f 52/67/2 53/68/2 54/69/2
f 55/70/7 48/71/7 56/72/7
f 34/73/10 57/74/10 58/75/10
f 59/76/6 60/77/6 61/78/6
f 62/79/10 63/80/10 64/81/10
f 52/82/6 65/83/6 62/84/6
f 22/85/2 66/86/2 20/87/2
f 38/88/5 61/78/5 67/89/5
f 59/90/2 37/46/2 68/91/2
f 69/92/5 62/84/5 64/93/5
f 70/94/10 43/53/10 71/95/10
f 9/9/4 67/96/4 7/7/4
f 16/97/10 72/98/10 14/56/10
f 73/99/4 64/100/4 74/101/4
f 40/102/2 75/103/2 41/61/2
f 12/12/3 51/66/3 10/10/3
f 73/99/3 50/64/3 12/12/3
f 74/101/3 56/72/3 73/99/3
f 9/9/3 55/70/3 74/101/3
f 3/104/13 16/17/13 4/105/13
f 76/106/14 22/24/14 2/107/14
f 77/108/14 40/49/14 76/106/14
f 77/109/1 78/110/1 79/111/1
f 78/112/10 80/113/10 79/114/10
f 75/115/15 81/116/15 58/117/15
f 66/118/15 71/119/15 43/120/15
f 49/121/16 58/117/16 57/122/16
f 82/123/16 43/120/16 42/124/16
f 83/125/17 49/126/17 57/127/17
f 84/128/17 42/129/17 85/130/17
f 86/131/18 87/132/18 68/133/18
f 72/134/18 88/135/18 54/136/18
f 63/137/19 68/133/19 37/138/19
f 46/139/19 54/136/19 53/140/19
f 89/141/20 37/142/20 90/143/20
f 91/144/20 53/145/20 92/146/20
f 20/87/2 82/147/2 18/148/2
f 74/149/10 63/80/10 89/150/10
f 93/151/21 94/152/21 16/153/21
f 50/154/10 57/74/10 44/155/10
f 73/156/2 53/68/2 69/157/2
f 56/158/2 49/62/2 95/159/2
f 74/160/22 90/161/22 9/162/22
f 12/163/10 46/57/10 91/164/10
f 96/165/21 97/166/21 65/167/21
f 55/168/10 42/52/10 47/169/10
f 70/170/23 98/171/23 22/172/23
f 8/173/2 82/147/2 84/174/2
f 12/175/22 92/176/22 73/177/22
f 56/178/24 83/179/24 50/180/24
f 96/181/2 68/91/2 87/182/2
f 99/183/23 100/184/23 40/185/23
f 65/186/10 86/187/10 62/79/10
f 99/188/10 58/75/10 81/189/10
f 8/190/24 85/191/24 55/192/24
f 93/193/2 54/69/2 88/194/2
f 101/195/10 7/196/10 67/197/10
f 101/195/10 61/198/10 102/199/10
f 31/200/25 103/201/25 104/202/25
f 32/203/10 17/204/10 105/205/10
f 32/203/10 21/36/10 19/206/10
f 105/205/10 7/196/10 106/207/10
f 107/208/10 61/198/10 60/209/10
f 108/210/2 10/211/2 109/212/2
f 108/210/2 15/31/2 13/213/2
f 6/6/2 36/214/2 35/215/2
f 31/216/2 51/217/2 45/218/2
f 31/216/2 36/214/2 26/219/2
f 104/220/2 10/211/2 51/217/2
f 105/221/25 110/222/25 32/223/25
f 25/224/2 111/225/2 30/226/2
f 30/226/2 112/227/2 103/228/2
f 33/229/10 113/230/10 114/231/10
f 110/232/10 115/233/10 113/230/10
f 33/229/10 116/234/10 29/235/10
f 117/236/2 25/224/2 118/237/2
f 106/238/1 119/239/1 105/221/1
f 104/202/1 112/240/1 109/241/1
f 24/242/3 116/243/3 107/244/3
f 5/245/3 118/246/3 6/247/3
f 101/248/26 115/249/26 106/238/26
f 109/241/26 111/250/26 108/251/26
f 102/252/27 113/253/27 101/254/27
f 108/255/27 120/256/27 27/257/27
f 107/258/28 114/259/28 102/252/28
f 27/257/28 117/260/28 5/261/28
f 121/262/1 4/263/1 79/111/1
f 78/110/1 76/264/1 1/1/1
f 122/265/1 80/266/1 123/267/1
f 121/268/2 122/269/2 1/270/2
f 79/271/14 124/272/14 121/273/14
f 1/274/13 123/275/13 78/276/13
f 125/277/1 126/278/1 127/279/1
f 128/280/1 129/281/1 130/282/1
f 126/283/2 131/284/2 127/285/2
f 132/286/3 133/287/3 134/288/3
f 135/289/14 133/290/14 129/291/14
f 136/292/14 133/290/14 135/289/14
f 131/293/29 137/294/29 138/295/29
f 139/296/14 140/297/14 141/298/14
f 128/299/13 131/300/13 138/301/13
f 128/302/10 140/303/10 142/304/10
f 139/296/14 143/305/14 126/306/14
f 144/307/30 140/308/30 145/309/30
f 138/295/1 141/310/1 144/307/1
f 146/311/2 147/312/2 135/313/2
f 136/314/10 148/315/10 149/316/10
f 126/306/14 150/317/14 139/296/14
f 151/318/10 152/319/10 150/320/10
f 134/321/2 153/322/2 125/323/2
f 130/282/10 129/281/10 132/324/10
f 153/325/14 150/317/14 126/306/14
f 153/325/14 149/326/14 150/317/14
f 153/325/14 136/292/14 149/326/14
f 152/327/14 154/328/14 155/329/14
f 156/330/14 147/331/14 154/328/14
f 154/328/14 147/331/14 157/332/14
f 148/333/14 147/331/14 156/330/14
f 139/334/2 154/335/2 158/336/2
f 149/337/3 156/338/3 151/339/3
f 135/340/1 159/341/1 136/342/1
f 150/343/3 155/344/3 139/345/3
f 158/346/3 157/347/3 146/348/3
f 3/3/1 121/262/1 1/1/1
f 77/108/14 35/43/14 99/349/14
f 3/104/13 60/77/13 96/350/13
f 35/215/2 77/351/2 6/6/2
f 77/351/2 4/4/2 6/6/2
f 4/4/2 160/352/2 5/5/2
f 7/7/3 17/18/3 8/8/3
f 10/10/4 13/353/4 11/11/4
f 13/13/5 15/16/5 14/14/5
f 15/16/6 160/354/6 16/17/6
f 17/18/7 19/355/7 18/19/7
f 19/20/8 21/23/8 20/21/8
f 21/23/9 23/356/9 22/24/9
f 60/209/10 3/357/10 107/208/10
f 3/357/10 2/25/10 24/27/10
f 107/208/10 3/357/10 24/27/10
f 6/28/11 118/358/11 25/29/11
f 5/5/2 160/352/2 15/31/2
f 28/33/11 33/41/11 29/34/11
f 24/27/10 23/26/10 21/36/10
f 26/30/12 25/29/12 30/38/12
f 32/40/12 110/359/12 33/41/12
f 34/42/9 99/349/9 35/43/9
f 9/45/2 90/360/2 37/46/2
f 39/48/9 70/361/9 40/49/9
f 39/51/10 47/169/10 42/52/10
f 44/54/8 34/42/8 36/44/8
f 14/56/10 72/98/10 46/57/10
f 47/59/8 39/48/8 41/50/8
f 41/61/2 75/103/2 49/62/2
f 50/64/7 44/362/7 45/65/7
f 52/67/2 69/157/2 53/68/2
f 55/70/7 47/363/7 48/71/7
f 34/73/10 44/155/10 57/74/10
f 59/76/6 96/350/6 60/77/6
f 62/79/10 86/187/10 63/80/10
f 52/82/6 93/364/6 65/83/6
f 22/85/2 98/365/2 66/86/2
f 38/88/5 59/76/5 61/78/5
f 59/90/2 38/47/2 37/46/2
f 69/92/5 52/82/5 62/84/5
f 70/94/10 39/51/10 43/53/10
f 9/9/4 38/366/4 67/96/4
f 16/97/10 94/367/10 72/98/10
f 73/99/4 69/368/4 64/100/4
f 40/102/2 100/369/2 75/103/2
f 12/12/3 50/64/3 51/66/3
f 73/99/3 56/72/3 50/64/3
f 74/101/3 55/70/3 56/72/3
f 9/9/3 8/8/3 55/70/3
f 4/105/13 16/17/13 160/354/13
f 3/104/13 93/364/13 16/17/13
f 3/104/13 65/83/13 93/364/13
f 3/104/13 96/350/13 65/83/13
f 2/107/14 22/24/14 23/356/14
f 76/106/14 70/361/14 22/24/14
f 76/106/14 40/49/14 70/361/14
f 77/108/14 99/349/14 40/49/14
f 4/263/1 77/109/1 79/111/1
f 78/112/10 123/370/10 80/113/10
f 75/115/15 100/371/15 81/116/15
f 66/118/15 98/372/15 71/119/15
f 49/121/16 75/115/16 58/117/16
f 82/123/16 66/118/16 43/120/16
f 83/125/17 95/373/17 49/126/17
f 84/128/17 82/374/17 42/129/17
f 86/131/18 97/375/18 87/132/18
f 72/134/18 94/376/18 88/135/18
f 63/137/19 86/131/19 68/133/19
f 46/139/19 72/134/19 54/136/19
f 89/141/20 63/377/20 37/142/20
f 91/144/20 46/378/20 53/145/20
f 20/87/2 66/86/2 82/147/2
f 74/149/10 64/81/10 63/80/10
f 93/151/21 88/379/21 94/152/21
f 50/154/10 83/380/10 57/74/10
f 73/156/2 92/381/2 53/68/2
f 56/158/2 48/63/2 49/62/2
f 74/160/22 89/382/22 90/161/22
f 12/163/10 11/58/10 46/57/10
f 96/165/21 87/383/21 97/166/21
f 55/168/10 85/384/10 42/52/10
f 70/170/23 71/385/23 98/171/23
f 8/173/2 18/148/2 82/147/2
f 12/175/22 91/386/22 92/176/22
f 56/178/24 95/387/24 83/179/24
f 96/181/2 59/90/2 68/91/2
f 99/183/23 81/388/23 100/184/23
f 65/186/10 97/389/10 86/187/10
f 99/188/10 34/73/10 58/75/10
f 8/190/24 84/390/24 85/191/24
f 93/193/2 52/67/2 54/69/2
f 101/195/10 106/207/10 7/196/10
f 101/195/10 67/197/10 61/198/10
f 31/200/25 30/391/25 103/201/25
f 32/203/10 19/206/10 17/204/10
f 32/203/10 28/37/10 21/36/10
f 105/205/10 17/204/10 7/196/10
f 107/208/10 102/199/10 61/198/10
f 108/210/2 13/213/2 10/211/2
f 108/210/2 27/32/2 15/31/2
f 6/6/2 26/219/2 36/214/2
f 31/216/2 104/220/2 51/217/2
f 31/216/2 45/218/2 36/214/2
f 104/220/2 109/212/2 10/211/2
f 105/221/25 119/239/25 110/222/25
f 25/224/2 120/392/2 111/225/2
f 30/226/2 111/225/2 112/227/2
f 33/229/10 110/232/10 113/230/10
f 110/232/10 119/393/10 115/233/10
f 33/229/10 114/231/10 116/234/10
f 117/236/2 120/392/2 25/224/2
f 106/238/1 115/249/1 119/239/1
f 104/202/1 103/201/1 112/240/1
f 24/242/3 29/394/3 116/243/3
f 5/245/3 117/395/3 118/246/3
f 101/248/26 113/396/26 115/249/26
f 109/241/26 112/240/26 111/250/26
f 102/252/27 114/259/27 113/253/27
f 108/255/27 111/397/27 120/256/27
f 107/258/28 116/398/28 114/259/28
f 27/257/28 120/256/28 117/260/28
f 121/262/1 3/3/1 4/263/1
f 78/110/1 77/109/1 76/264/1
f 1/1/1 76/264/1 2/2/1
f 122/265/1 124/399/1 80/266/1
f 121/268/2 124/400/2 122/269/2
f 79/271/14 80/401/14 124/272/14
f 1/274/13 122/402/13 123/275/13
f 125/277/1 153/403/1 126/278/1
f 128/280/1 142/404/1 129/281/1
f 126/283/2 143/405/2 131/284/2
f 136/292/14 161/406/14 133/290/14
f 131/293/29 143/407/29 137/294/29
f 139/296/14 142/408/14 140/297/14
f 128/299/13 127/409/13 131/300/13
f 128/302/10 145/410/10 140/303/10
f 128/299/13 144/411/13 145/412/13
f 128/299/13 138/301/13 144/411/13
f 139/296/14 137/413/14 143/305/14
f 139/296/14 141/298/14 137/413/14
f 144/307/30 141/310/30 140/308/30
f 138/295/1 137/294/1 141/310/1
f 134/288/3 133/287/3 161/414/3
f 146/311/2 157/415/2 147/312/2
f 139/296/14 158/416/14 146/417/14
f 136/314/10 159/418/10 148/315/10
f 150/317/14 149/326/14 151/419/14
f 151/318/10 156/420/10 152/319/10
f 142/408/14 139/296/14 129/291/14
f 139/296/14 146/417/14 129/291/14
f 146/417/14 135/289/14 129/291/14
f 134/321/2 161/421/2 153/322/2
f 132/324/10 129/281/10 133/422/10
f 153/325/14 161/406/14 136/292/14
f 152/327/14 156/330/14 154/328/14
f 148/333/14 159/423/14 147/331/14
f 139/334/2 155/424/2 154/335/2
f 149/337/3 148/425/3 156/338/3
f 135/340/1 147/426/1 159/341/1
f 150/343/3 152/427/3 155/344/3
f 158/346/3 154/428/3 157/347/3
