# Blender v2.92.0 OBJ File: ''
# www.blender.org
mtllib Bullet.mtl
o bullet
v 0.196419 1.335210 0.000000
v 0.196419 0.987562 0.000000
v 0.138889 0.987562 -0.138889
v 0.138889 1.335210 -0.138889
v -0.000000 0.987562 -0.196419
v -0.000000 1.335210 -0.196419
v -0.138889 0.987562 -0.138889
v -0.138889 1.335210 -0.138889
v -0.196419 0.987562 0.000000
v -0.196419 1.335210 0.000000
v -0.138889 0.987562 0.138889
v -0.138889 1.335210 0.138889
v 0.000000 0.987562 0.196419
v 0.000000 1.335210 0.196419
v 0.138889 0.987562 0.138889
v 0.138889 1.335210 0.138889
v 0.196419 0.639912 0.000000
v 0.138889 0.639912 -0.138889
v -0.000000 0.639912 -0.196419
v -0.138889 0.639912 -0.138889
v -0.196419 0.639912 0.000000
v -0.138889 0.639912 0.138889
v 0.000000 0.639912 0.196419
v 0.138889 0.639912 0.138889
v 0.196419 0.292262 0.000000
v 0.138889 0.292262 -0.138889
v -0.000000 0.292262 -0.196419
v -0.138889 0.292262 -0.138889
v -0.196419 0.292262 0.000000
v -0.138889 0.292262 0.138889
v 0.000000 0.292262 0.196419
v 0.138889 0.292262 0.138889
v 0.196419 -0.055388 -0.000000
v 0.138889 -0.055388 -0.138889
v -0.000000 -0.055388 -0.196419
v -0.138889 -0.055388 -0.138889
v -0.196419 -0.055388 0.000000
v -0.138889 -0.055388 0.138889
v 0.000000 -0.055388 0.196419
v 0.138889 -0.055388 0.138889
v 0.000415 -0.095572 0.000415
v 0.000000 -0.095572 0.000587
v -0.000415 -0.095572 0.000415
v -0.000587 -0.095572 -0.000000
v -0.000415 -0.095572 -0.000415
v 0.000000 -0.095572 -0.000587
v 0.000415 -0.095572 -0.000415
v 0.000587 -0.095572 -0.000000
v 0.017350 2.308640 0.000000
v 0.012268 2.308640 -0.012268
v 0.000000 2.308640 -0.017349
v -0.012268 2.308640 -0.012268
v -0.017349 2.308640 0.000000
v -0.012268 2.308640 0.012268
v 0.000000 2.308640 0.017350
v 0.012268 2.308640 0.012268
v 0.138889 1.390530 -0.138889
v 0.196419 1.390530 0.000000
v 0.138889 1.390530 0.138889
v -0.000000 1.390530 -0.196419
v -0.138889 1.390530 -0.138889
v -0.196419 1.390530 0.000000
v -0.138889 1.390530 0.138889
v -0.000000 1.390530 0.196419
v 0.110450 1.494630 -0.110450
v 0.156199 1.494630 0.000000
v -0.000000 1.494630 -0.156199
v 0.110450 1.494630 0.110450
v -0.000000 1.494630 0.156199
v -0.110450 1.494630 -0.110450
v -0.156199 1.494630 0.000000
v -0.110450 1.494630 0.110450
v 0.110450 1.613770 -0.110450
v 0.156199 1.613770 0.000000
v -0.000000 1.613770 -0.156199
v 0.110450 1.613770 0.110450
v -0.110450 1.613770 -0.110450
v -0.000000 1.613770 0.156199
v -0.110450 1.613770 0.110450
v -0.156199 1.613770 0.000000
v 0.092414 1.613770 -0.092414
v 0.130693 1.613770 0.000000
v -0.000000 1.613770 -0.130693
v 0.092414 1.613770 0.092414
v -0.092414 1.613770 -0.092414
v -0.000000 1.613770 0.130693
v -0.130693 1.613770 0.000000
v -0.092414 1.613770 0.092414
v 0.092414 1.774110 -0.092414
v 0.130693 1.774110 0.000000
v -0.000000 1.774110 -0.130693
v 0.092414 1.774110 0.092414
v -0.092414 1.774110 -0.092414
v -0.000000 1.774110 0.130693
v -0.130693 1.774110 0.000000
v -0.092414 1.774110 0.092414
v 0.076226 1.980100 -0.076225
v 0.107799 1.980100 0.000000
v 0.000000 1.980100 -0.107799
v 0.076226 1.980100 0.076226
v -0.076226 1.980100 -0.076225
v -0.000000 1.980100 0.107799
v -0.107799 1.980100 0.000000
v -0.076226 1.980100 0.076226
v 0.183096 -0.075903 -0.000000
v 0.129469 -0.075903 -0.129469
v 0.129469 -0.075903 0.129469
v -0.000000 -0.075903 -0.183096
v -0.129469 -0.075903 -0.129469
v -0.183096 -0.075903 0.000000
v -0.129469 -0.075903 0.129469
v -0.000000 -0.075903 0.183096
v 0.183096 -0.088850 -0.000000
v 0.129469 -0.088850 -0.129469
v 0.129469 -0.088850 0.129469
v -0.000000 -0.088850 -0.183096
v -0.000000 -0.088850 0.183096
v -0.129469 -0.088850 -0.129469
v -0.183096 -0.088850 -0.000000
v -0.129469 -0.088850 0.129469
v 0.205452 -0.088850 0.000000
v 0.145276 -0.088850 -0.145276
v 0.145277 -0.088850 0.145276
v 0.000000 -0.088850 -0.205452
v -0.000000 -0.088850 0.205452
v -0.145276 -0.088850 -0.145276
v -0.145276 -0.088850 0.145276
v -0.205452 -0.088850 -0.000000
v 0.205452 -0.108644 -0.000000
v 0.145276 -0.108644 -0.145276
v 0.145277 -0.108644 0.145276
v 0.000000 -0.108644 -0.205452
v -0.000000 -0.108644 0.205452
v -0.145276 -0.108644 -0.145276
v -0.145276 -0.108644 0.145276
v -0.205452 -0.108644 -0.000000
v 0.105957 -0.108644 -0.000000
v 0.074923 -0.108644 -0.074923
v 0.074923 -0.108644 0.074923
v 0.000000 -0.108644 -0.105957
v -0.000000 -0.108644 0.105957
v -0.074923 -0.108644 -0.074923
v -0.074923 -0.108644 0.074923
v -0.105957 -0.108644 -0.000000
v 0.105957 -0.098150 -0.000000
v 0.074923 -0.098150 -0.074923
v 0.074923 -0.098150 0.074923
v 0.000000 -0.098150 -0.105957
v -0.000000 -0.098150 0.105957
v -0.074923 -0.098150 -0.074923
v -0.074923 -0.098150 0.074923
v -0.105957 -0.098150 -0.000000
v 0.096921 -0.098150 -0.000000
v 0.068533 -0.098150 -0.068533
v 0.068534 -0.098150 0.068533
v 0.000000 -0.098150 -0.096921
v -0.000000 -0.098150 0.096921
v -0.068533 -0.098150 -0.068533
v -0.068533 -0.098150 0.068533
v -0.096921 -0.098150 -0.000000
v 0.096921 -0.108644 -0.000000
v 0.068533 -0.108644 -0.068533
v 0.068534 -0.108644 0.068533
v 0.000000 -0.108644 -0.096921
v -0.000000 -0.108644 0.096921
v -0.068533 -0.108644 -0.068533
v -0.068533 -0.108644 0.068533
v -0.096921 -0.108644 -0.000000
v 0.038994 -0.108644 -0.000000
v 0.027573 -0.108644 -0.027573
v 0.027573 -0.108644 0.027573
v 0.000000 -0.108644 -0.038994
v -0.000000 -0.108644 0.038994
v -0.027573 -0.108644 -0.027573
v -0.027573 -0.108644 0.027573
v -0.038994 -0.108644 -0.000000
vn 1.0000 -0.0000 0.0000
vn 0.7071 0.0000 -0.7071
vn -0.0000 0.0000 -1.0000
vn -0.7071 0.0000 -0.7071
vn -1.0000 0.0000 0.0000
vn -0.7071 -0.0000 0.7071
vn 0.0000 -0.0000 1.0000
vn 0.7071 -0.0000 0.7071
vn 0.9579 -0.2871 0.0000
vn 0.6773 -0.2872 -0.6773
vn -0.0000 -0.2871 -0.9579
vn -0.6773 -0.2872 -0.6773
vn -0.9579 -0.2871 0.0000
vn -0.6773 -0.2872 0.6773
vn 0.0000 -0.2871 0.9579
vn 0.6773 -0.2872 0.6773
vn -0.0672 -0.9845 -0.1622
vn -0.0000 -0.9762 -0.2167
vn 0.0672 -0.9845 -0.1622
vn 0.0000 -1.0000 -0.0000
vn 0.0672 -0.9845 0.1622
vn 0.0000 -0.9762 0.2167
vn -0.1533 -0.9762 0.1533
vn 0.6950 0.1842 -0.6950
vn 0.9829 0.1842 -0.0000
vn 0.6950 0.1842 0.6950
vn -0.0000 0.1842 -0.9829
vn -0.6950 0.1842 -0.6950
vn -0.9829 0.1842 0.0000
vn -0.6950 0.1842 0.6950
vn 0.0000 0.1842 0.9829
vn 0.0000 1.0000 0.0000
vn 0.9579 -0.2872 0.0000
vn 0.0000 -0.2872 -0.9579
vn -0.9579 -0.2872 -0.0000
vn 0.0000 -0.2872 0.9579
vn -0.1150 -0.9867 0.1150
vn -0.0447 -0.9931 -0.1080
vn -0.0000 -0.9867 0.1626
vn -0.0000 -0.9867 -0.1626
vn 0.0447 -0.9931 0.1080
vn 0.0447 -0.9931 -0.1080
vn -0.3194 -0.9383 0.1323
vn -0.3194 -0.9383 -0.1323
vn 0.3194 -0.9383 0.1323
vn 0.3194 -0.9383 -0.1323
vn 0.7060 0.0554 -0.7060
vn 0.9985 0.0554 0.0000
vn 0.0000 0.0554 -0.9985
vn 0.7060 0.0553 0.7060
vn -0.7060 0.0554 -0.7060
vn 0.0000 0.0554 0.9985
vn -0.9985 0.0554 -0.0000
vn -0.7060 0.0553 0.7060
vn 0.6944 0.1887 -0.6944
vn 0.9820 0.1887 0.0000
vn 0.0000 0.1887 -0.9820
vn 0.6944 0.1887 0.6944
vn -0.6944 0.1887 -0.6944
vn -0.0000 0.1887 0.9820
vn -0.9820 0.1887 0.0000
vn -0.6944 0.1887 0.6944
vn 0.6817 0.2654 -0.6817
vn 0.9641 0.2654 0.0000
vn 0.0000 0.2654 -0.9641
vn 0.6817 0.2654 0.6817
vn -0.6817 0.2654 -0.6817
vn 0.0000 0.2654 0.9641
vn -0.9641 0.2654 0.0000
vn -0.6817 0.2654 0.6817
usemtl Messing
s 1
f 1//1 2//1 3//2 4//2
f 4//2 3//2 5//3 6//3
f 6//3 5//3 7//4 8//4
f 8//4 7//4 9//5 10//5
f 10//5 9//5 11//6 12//6
f 12//6 11//6 13//7 14//7
f 14//7 13//7 15//8 16//8
f 16//8 15//8 2//1 1//1
f 2//1 17//1 18//2 3//2
f 3//2 18//2 19//3 5//3
f 5//3 19//3 20//4 7//4
f 7//4 20//4 21//5 9//5
f 9//5 21//5 22//6 11//6
f 11//6 22//6 23//7 13//7
f 13//7 23//7 24//8 15//8
f 15//8 24//8 17//1 2//1
f 17//1 25//1 26//2 18//2
f 18//2 26//2 27//3 19//3
f 19//3 27//3 28//4 20//4
f 20//4 28//4 29//5 21//5
f 21//5 29//5 30//6 22//6
f 22//6 30//6 31//7 23//7
f 23//7 31//7 32//8 24//8
f 24//8 32//8 25//1 17//1
f 25//1 33//9 34//10 26//2
f 26//2 34//10 35//11 27//3
f 27//3 35//11 36//12 28//4
f 28//4 36//12 37//13 29//5
f 29//5 37//13 38//14 30//6
f 30//6 38//14 39//15 31//7
f 31//7 39//15 40//16 32//8
f 32//8 40//16 33//9 25//1
f 41//17 42//18 43//19 44//20 45//21 46//22 47//23 48//20
f 1//1 4//2 57//24 58//25
f 16//8 1//1 58//25 59//26
f 4//2 6//3 60//27 57//24
f 6//3 8//4 61//28 60//27
f 8//4 10//5 62//29 61//28
f 10//5 12//6 63//30 62//29
f 12//6 14//7 64//31 63//30
f 14//7 16//8 59//26 64//31
f 58//25 57//24 65//24 66//25
f 57//24 60//27 67//27 65//24
f 59//26 58//25 66//25 68//26
f 64//31 59//26 68//26 69//31
f 60//27 61//28 70//28 67//27
f 61//28 62//29 71//29 70//28
f 62//29 63//30 72//30 71//29
f 63//30 64//31 69//31 72//30
f 66//25 65//24 73//2 74//1
f 65//24 67//27 75//3 73//2
f 68//26 66//25 74//1 76//8
f 67//27 70//28 77//4 75//3
f 69//31 68//26 76//8 78//7
f 72//30 69//31 78//7 79//6
f 70//28 71//29 80//5 77//4
f 71//29 72//30 79//6 80//5
f 74//32 73//32 81//32 82//32
f 73//32 75//32 83//32 81//32
f 76//32 74//32 82//32 84//32
f 75//32 77//32 85//32 83//32
f 78//32 76//32 84//32 86//32
f 77//32 80//32 87//32 85//32
f 79//32 78//32 86//32 88//32
f 80//32 79//32 88//32 87//32
f 34//10 33//9 105//33 106//10
f 33//9 40//16 107//16 105//33
f 35//11 34//10 106//10 108//34
f 36//12 35//11 108//34 109//12
f 37//13 36//12 109//12 110//35
f 38//14 37//13 110//35 111//14
f 39//15 38//14 111//14 112//36
f 40//16 39//15 112//36 107//16
f 106//10 105//33 113//1 114//2
f 105//33 107//16 115//8 113//1
f 108//34 106//10 114//2 116//3
f 107//16 112//36 117//7 115//8
f 109//12 108//34 116//3 118//4
f 110//35 109//12 118//4 119//5
f 111//14 110//35 119//5 120//6
f 112//36 111//14 120//6 117//7
f 114//32 113//32 121//32 122//32
f 113//32 115//32 123//32 121//32
f 116//32 114//32 122//32 124//32
f 115//32 117//32 125//32 123//32
f 118//32 116//32 124//32 126//32
f 117//32 120//32 127//32 125//32
f 119//32 118//32 126//32 128//32
f 120//32 119//32 128//32 127//32
f 122//2 121//1 129//1 130//2
f 121//1 123//8 131//8 129//1
f 124//3 122//2 130//2 132//3
f 123//8 125//7 133//7 131//8
f 126//4 124//3 132//3 134//4
f 125//7 127//6 135//6 133//7
f 128//5 126//4 134//4 136//5
f 127//6 128//5 136//5 135//6
f 130//20 129//20 137//20 138//20
f 129//20 131//20 139//20 137//20
f 132//20 130//20 138//20 140//20
f 131//20 133//20 141//20 139//20
f 134//20 132//20 140//20 142//20
f 133//20 135//20 143//20 141//20
f 136//20 134//20 142//20 144//20
f 135//20 136//20 144//20 143//20
f 138//6 137//5 145//5 146//6
f 137//5 139//4 147//4 145//5
f 140//7 138//6 146//6 148//7
f 139//4 141//3 149//3 147//4
f 142//8 140//7 148//7 150//8
f 141//3 143//2 151//2 149//3
f 144//1 142//8 150//8 152//1
f 143//2 144//1 152//1 151//2
f 146//20 145//20 153//20 154//20
f 145//20 147//20 155//20 153//20
f 148//20 146//20 154//20 156//20
f 147//20 149//20 157//20 155//20
f 150//20 148//20 156//20 158//20
f 149//20 151//20 159//20 157//20
f 152//20 150//20 158//20 160//20
f 151//20 152//20 160//20 159//20
f 154//2 153//1 161//1 162//2
f 153//1 155//8 163//8 161//1
f 156//3 154//2 162//2 164//3
f 155//8 157//7 165//7 163//8
f 158//4 156//3 164//3 166//4
f 157//7 159//6 167//6 165//7
f 160//5 158//4 166//4 168//5
f 159//6 160//5 168//5 167//6
f 162//20 161//20 169//20 170//37
f 161//20 163//20 171//38 169//20
f 164//20 162//20 170//37 172//39
f 163//20 165//20 173//40 171//38
f 166//20 164//20 172//39 174//41
f 165//20 167//20 175//42 173//40
f 168//20 166//20 174//41 176//20
f 167//20 168//20 176//20 175//42
f 170//37 169//43 48//43 47//23
f 169//44 171//44 41//44 48//44
f 172//39 170//37 47//23 46//22
f 171//38 173//40 42//18 41//17
f 174//41 172//39 46//22 45//21
f 173//40 175//42 43//19 42//18
f 176//45 174//45 45//45 44//45
f 175//46 176//46 44//46 43//46
usemtl material23
f 49//32 50//32 51//32 52//32 53//32 54//32 55//32 56//32
f 82//1 81//2 89//47 90//48
f 81//2 83//3 91//49 89//47
f 84//8 82//1 90//48 92//50
f 83//3 85//4 93//51 91//49
f 86//7 84//8 92//50 94//52
f 85//4 87//5 95//53 93//51
f 88//6 86//7 94//52 96//54
f 87//5 88//6 96//54 95//53
f 90//48 89//47 97//55 98//56
f 89//47 91//49 99//57 97//55
f 92//50 90//48 98//56 100//58
f 91//49 93//51 101//59 99//57
f 94//52 92//50 100//58 102//60
f 93//51 95//53 103//61 101//59
f 96//54 94//52 102//60 104//62
f 95//53 96//54 104//62 103//61
f 98//56 97//55 50//63 49//64
f 97//55 99//57 51//65 50//63
f 100//58 98//56 49//64 56//66
f 99//57 101//59 52//67 51//65
f 102//60 100//58 56//66 55//68
f 101//59 103//61 53//69 52//67
f 104//62 102//60 55//68 54//70
f 103//61 104//62 54//70 53//69
